PathFileType	4	(X/Y/Z)	Patient4_TMGait_0pt6_02_left_36.trc.trc
DataRate	CameraRate	NumFrames	NumMarkers	Units	OrigDataRate	OrigDataStartFrame	OrigNumFrames
79.096045197740	79.096045197740	6	33	mm	79.096045197740	53	       141
Frame#	Time	Sacral			L.Shoulder			Chest			R.Shoulder			Neck			R.ASIS			L.ASIS			R.Thigh.Superior			R.Thigh.Lateral			R.Thigh.Inferior			R.Patella			L.Thigh.Superior			L.Thigh.Lateral			L.Thigh.Inferior			L.Patella			L.Shank.Superior			L.Shank.Lateral			L.Shank.Inferior			R.Shank.Superior			R.Shank.Lateral			R.Shank.Inferior			R.Heel			R.Midfoot.Superior			R.Midfoot.Lateral			R.Toe			L.Heel			L.Midfoot.Lateral			L.Midfoot.Superior			L.Toe			L.Elbow			L.Wrist			R.Elbow			R.Wrist			
		X1	Y1	Z1	X2	Y2	Z2	X3	Y3	Z3	X4	Y4	Z4	X5	Y5	Z5	X6	Y6	Z6	X7	Y7	Z7	X8	Y8	Z8	X9	Y9	Z9	X10	Y10	Z10	X11	Y11	Z11	X12	Y12	Z12	X13	Y13	Z13	X14	Y14	Z14	X15	Y15	Z15	X16	Y16	Z16	X17	Y17	Z17	X18	Y18	Z18	X19	Y19	Z19	X20	Y20	Z20	X21	Y21	Z21	X22	Y22	Z22	X23	Y23	Z23	X24	Y24	Z24	X25	Y25	Z25	X26	Y26	Z26	X27	Y27	Z27	X28	Y28	Z28	X29	Y29	Z29	X30	Y30	Z30	X31	Y31	Z31	X32	Y32	Z32	X33	Y33	Z33	

53	44.547428571429	820.465024348593	1024.630622966998	401.634849696647	1046.595180647205	1430.780390757661	210.577224485132	1141.024023440293	1352.381892377181	372.316225944246	1064.843230837404	1440.024581985970	542.547318232162	1054.998397144271	1492.748962948503	358.787253339481	1041.550430301561	946.986458570574	518.436889589948	1029.973922214614	956.804100004664	244.976096380600	1121.892242310588	780.188029387401	493.633453982043	1082.292360259792	664.456147873528	574.877683230631	1172.379461582387	622.345443832868	496.007763010383	1191.259088992170	507.910585483305	522.379168440220	1068.809491778059	748.699096806751	277.742920406039	973.308870035802	636.017171811303	226.799432155685	1055.438096022512	556.372426052903	290.926831459081	1052.512549962250	486.983156174424	304.374948714711	1023.836834066044	417.148294937511	299.758039257817	930.552728207162	303.799770864967	253.605500367105	976.811799339533	194.171325341935	330.602286963142	1110.468992204806	437.083754578879	533.156695993079	985.736630913819	407.514408926158	591.851161194481	966.750609455442	297.269257338793	549.043716547535	765.299812457909	247.163975941939	517.568857617633	926.356599829263	177.046233759510	567.766874109580	816.732304463088	188.238068178522	596.587849115603	979.877999811491	61.685056765071	603.734477165648	843.527463059730	40.841775302256	378.031262870075	919.178062565789	36.052446557358	299.428566302906	1002.680745481107	96.364407308340	325.947009905886	1131.338034823602	40.506302027499	301.618225799274	987.617309574037	1089.849453794612	72.581999456372	1158.301399788814	891.676558853317	72.190084025291	977.779305792506	1105.310521443854	673.493868923164	1003.452556941417	843.167916315927	670.508739835659	
54	44.560071428571	819.148385058467	1024.986920581140	400.690215485508	1046.556552801537	1431.137132457619	209.955933239900	1140.107176892890	1352.721401532577	372.185538086284	1063.045924359946	1440.337789362906	541.973184732648	1054.131773081128	1493.097968655695	358.196350077380	1040.326416906843	947.588781738348	517.977645290648	1029.103348974101	957.359118413765	244.483653970189	1122.886128765410	783.680197252619	492.990521288475	1085.854105187963	667.617204794384	574.820715827212	1176.483899509680	627.040917442025	495.686550719949	1198.035414842322	513.133296404366	522.216153037370	1065.560681037100	747.963514617359	277.212881557066	968.931199104607	636.295062518646	226.063307381291	1050.155727814095	555.819228075027	290.123023709369	1046.493694656175	486.562937712653	303.557673260466	1017.606716189741	417.053421161394	298.957940860670	923.647413264875	304.117311754260	253.080773946956	969.670850381095	194.329785662399	330.094119500841	1118.815931303786	440.654436764108	533.374883677847	995.033415673662	408.081799442633	592.430219657349	978.692528617065	297.331353581664	549.793873394018	778.419573783335	241.782660224180	518.934437574296	941.553124793402	176.530225091390	569.111309757660	831.686103310571	184.608067513969	598.010733440260	998.273118822364	62.788864925176	605.055698866784	835.881956501889	41.175508856651	377.923550987793	911.605232266992	36.146454806561	299.386265363467	995.201099609151	96.420175595828	325.707438092359	1123.741340764049	40.398993111613	301.579577371078	992.727196306723	1090.594632492315	69.628721480869	1171.890847501628	900.374822945907	69.639892797832	967.904941108185	1108.651514381445	673.974891055987	981.811476929778	845.538526474629	674.868927514614	
55	44.572714285714	817.832034772405	1025.373735100534	399.932471616536	1046.557239126480	1431.445609565424	209.425120626562	1139.220439663042	1353.041933922752	372.176184520627	1061.292385398849	1440.743494278494	541.432905437856	1053.291174279123	1493.440057938018	357.659561907120	1039.082736506073	948.123858018912	517.683996821852	1028.220070696426	957.922765635666	244.143529534228	1123.594548649059	786.970830803739	492.509389076156	1088.951024402752	670.617453766872	574.871457341361	1180.032879658176	631.481891859661	495.489402889516	1204.159991849791	518.268880797141	522.154222433568	1062.209540007131	747.288189519734	276.835892243936	964.408119242980	636.666875173270	225.389450099842	1044.677262761296	555.337763079237	289.349989196393	1040.263352658662	486.248200024856	302.737972661807	1011.208574221154	417.060233774807	298.146667681944	916.594617338412	304.518841901827	252.565916806640	962.476441879932	194.572269484632	329.547779587727	1126.794522052164	444.033281736769	533.671221306780	1004.244060445922	408.008733138688	593.241264234644	990.875849569749	296.788115946667	550.697716871210	792.053119637682	235.223071508569	520.729449352475	957.435575185873	175.350582959860	570.627026849326	847.392224370489	179.967641517761	599.766375235964	1017.690187484909	63.375568643773	606.383647033577	828.257578997553	41.597388464692	377.797156643243	904.043325805575	36.269039679692	299.333744241300	987.748964396348	96.496996449176	325.442472654493	1116.151597812916	40.284394145874	301.543724355063	997.697387599480	1091.381008467556	66.951428138815	1184.931409725184	909.453300629314	67.568875777032	958.089774134421	1112.427960924839	674.516347667963	961.514048275543	849.061585203055	678.502648188019	
56	44.585357142857	816.528572883973	1025.777847634756	399.373324039887	1046.562791608603	1431.683879995549	208.982578480696	1138.360257737230	1353.330130515024	372.272101087243	1059.609187886846	1441.233662830103	540.929518223295	1052.482508933842	1493.759780642792	357.170074891368	1037.826458109379	948.580206094246	517.549584604752	1027.300809988104	958.469003587710	243.943461383508	1123.996838187309	790.016134508846	492.144633584920	1091.578683505502	673.405278663207	575.012812604940	1183.016437177396	635.607146653970	495.398984175713	1209.599056237325	523.242400631367	522.187139396985	1058.814308592264	746.680084980227	276.572262013656	959.766513829425	637.128931058345	224.786973665406	1039.042681388229	554.929855898202	288.604861033921	1033.870161791406	486.044636712393	301.924114634414	1004.683240100291	417.166297963875	297.337184469435	909.429093655658	305.006442252597	252.069891540338	955.248700783765	194.895597617079	328.969799722846	1134.360557295622	447.182986693356	534.035314279086	1013.337671223364	407.325505731397	594.244875563554	1003.236432901960	295.697832824987	551.719036267715	806.179693213979	227.637423067025	522.861312029523	973.881798023002	173.601047924142	572.244352353366	863.771485322753	174.480920979840	601.783678822680	1037.941901866600	63.577399562015	607.702598759651	820.659441389199	42.119019611150	377.645981350726	896.493227445020	36.424881284812	299.267374861073	980.326626438058	96.595809902993	325.152672846067	1108.569121633377	40.161153654022	301.509398937684	1002.545494878944	1092.161078889147	64.545267956713	1197.387331165146	918.803035561205	65.964846411255	948.418130449377	1116.599458514736	675.110268781316	942.614100349401	853.481345631782	681.504860618464	
57	44.598000000000	815.251279183055	1026.186634352736	399.020091467319	1046.542047573286	1431.831564151414	208.624797261133	1137.524264676139	1353.574249349947	372.455359954076	1058.024585576772	1441.797416007537	540.471178001009	1051.710709936897	1494.041623911127	356.721526432989	1036.565114146486	948.945464217536	517.568724554940	1026.325415024076	958.971663861218	243.874790771713	1124.079555314324	792.773293584038	491.866281961477	1093.726411534402	675.927797204964	575.231305391064	1185.426679954230	639.354110258454	495.408485294856	1214.319956477216	527.976642771468	522.314698923615	1055.424671057482	746.139022034786	276.386836764971	955.033902448407	637.674625922037	224.266386821814	1033.292077460145	554.594973916844	287.890690530660	1027.362440163261	485.952759294810	301.128046159015	998.069510557462	417.366245271861	296.544630782680	902.183842153598	305.578765704306	251.603838495033	948.007618548343	195.293376534115	328.368682026986	1141.467585563918	450.066723615769	534.459202828652	1022.283098817590	406.060905125569	595.403269678721	1015.713761601759	294.117909337137	552.821114615813	820.786742169247	219.161022858121	525.229599276786	990.782172796900	171.373373362158	573.886710160186	880.756848460745	168.296627077019	603.979566526455	1058.863772429232	63.540004234944	608.984937231546	813.090650372215	42.745787035080	377.467163271759	888.954462187077	36.616690266485	299.185227759312	972.934172407343	96.716348810250	324.839890780732	1100.992887884333	40.028963311294	301.475718933058	1007.290001614138	1092.889994002156	62.408141142156	1209.229226166909	928.305189182585	64.813052376201	938.981511168279	1121.109300458627	675.745424368573	925.128722874704	858.553306958701	683.984888771680	
58	44.610642857143	814.013795781984	1026.587325364302	398.875174509967	1046.470694536961	1431.870335778642	208.347223693736	1136.711804096862	1353.764002014066	372.707907488159	1056.564965454538	1442.420840080169	540.068639943195	1050.979199252060	1494.270333023166	356.308481953474	1035.307206972958	949.205044709697	517.737357961829	1025.285553811725	959.411676092632	243.932272007660	1123.839463646277	795.198982652646	491.662881090666	1095.377153398245	678.128753441666	575.517856357639	1187.257384743336	642.655931974452	495.522027899986	1218.291616959980	532.390834769843	522.541917677007	1052.076161643282	745.658496856793	276.253393573378	950.236452711886	638.294514542951	223.838319796605	1027.462731457048	554.330018504269	287.214681283431	1020.784689334204	485.967195036603	300.362702784486	991.401115478625	417.651459159026	295.784310863988	894.887380090482	306.230654096768	251.179954078278	940.770867639051	195.755955803513	327.754275533687	1148.066856706760	452.645286253369	534.935863508201	1031.048817045148	404.237310508820	596.682289429379	1028.251106568154	292.100957980802	553.967952145608	835.870786526839	209.909715931334	527.732629724942	1008.042566483312	168.753734350425	575.478046257657	898.294403882720	161.541127624661	606.262922874277	1080.313838565410	63.407527907417	610.189866206041	805.551919912899	43.475113072098	377.262126065535	881.425243726029	36.844461500889	299.087755971744	965.569430017194	96.857003475395	324.507532506217	1093.420690941707	39.888591213158	301.442330375778	1011.945325014412	1093.528136250557	60.540626837500	1220.431884821213	937.834293538063	64.096525805436	929.875505462962	1125.885011527048	676.408128427959	909.053863685625	864.051863773528	686.047306061998	
